<?xml version="1.0" standalone="no"?>
<!DOCTYPE svg PUBLIC "-//W3C//DTD SVG 20010904//EN"
 "http://www.w3.org/TR/2001/REC-SVG-20010904/DTD/svg10.dtd">
<svg version="1.0" xmlns="http://www.w3.org/2000/svg"
 width="258.000000pt" height="189.000000pt" viewBox="0 0 258.000000 189.000000"
 preserveAspectRatio="xMidYMid meet">

<g transform="translate(0.000000,189.000000) scale(0.100000,-0.100000)"
fill="#000000" stroke="none">
<path d="M1206 1670 c-66 -33 -123 -65 -128 -72 -4 -7 -8 -57 -8 -110 l0 -98
-51 -26 c-28 -14 -52 -24 -53 -22 -1 2 -7 14 -13 28 -15 34 -235 150 -285 150
-36 0 -241 -94 -271 -124 -12 -12 -16 -43 -16 -139 -1 -107 1 -126 16 -139 10
-8 68 -40 130 -72 134 -67 157 -69 253 -21 l69 35 111 -57 110 -57 0 -106 c0
-128 -3 -124 147 -199 136 -68 160 -68 296 0 134 67 147 80 147 141 0 44 3 50
33 68 57 36 74 36 154 -4 40 -20 88 -36 105 -36 32 0 247 98 281 128 15 14 18
31 16 131 -2 138 1 134 -148 210 -124 64 -155 67 -239 27 l-59 -28 -73 38 -74
39 1 105 c1 76 -2 111 -13 128 -20 31 -245 142 -286 141 -19 0 -85 -26 -152
-59z m308 -15 c108 -58 132 -76 123 -97 -8 -23 -234 -128 -274 -128 -25 0 -69
18 -142 56 -122 65 -142 80 -134 101 3 8 60 42 127 75 146 72 150 72 300 -7z
m-696 -209 c99 -52 117 -65 120 -86 3 -24 -7 -31 -115 -83 -77 -37 -130 -57
-153 -57 -51 1 -275 120 -275 146 0 26 220 140 271 140 22 0 75 -21 152 -60z
m400 -46 c17 -11 32 -22 32 -25 0 -5 -225 -120 -266 -136 -23 -8 -24 -7 -24
37 l0 45 103 49 c56 27 107 49 112 49 6 1 25 -8 43 -19z m438 -62 c68 -35 124
-66 124 -69 0 -4 -20 -14 -45 -23 l-44 -17 -121 62 c-66 34 -123 65 -126 70
-6 10 44 38 70 39 10 0 74 -28 142 -62z m439 -70 c174 -88 175 -94 18 -171
-153 -75 -172 -75 -302 -6 -109 57 -137 80 -128 103 6 15 152 90 237 122 43
16 51 14 175 -48z m-841 -28 c43 -22 91 -40 109 -40 18 0 61 14 95 30 l64 30
68 -36 69 -36 3 -95 c2 -64 -1 -98 -9 -105 -8 -6 -49 10 -131 51 -65 34 -132
63 -148 66 -20 4 -53 -5 -107 -29 l-78 -34 -109 56 c-60 31 -109 62 -109 67 0
6 46 33 102 62 56 29 102 52 103 53 0 0 35 -18 78 -40z m-241 -121 c78 -39
146 -75 151 -79 4 -5 -9 -17 -31 -28 l-39 -20 -157 79 c-86 44 -157 84 -157
90 0 12 37 28 68 28 13 1 88 -31 165 -70z m494 -85 c99 -49 133 -71 133 -84 0
-22 -36 -50 -63 -50 -9 0 -20 -7 -23 -15 -4 -8 -10 -15 -15 -15 -5 0 -39 -14
-76 -31 -90 -41 -120 -37 -258 37 -137 74 -144 89 -58 130 166 79 199 93 213
94 8 0 75 -30 147 -66z m296 -25 c12 -7 24 -13 25 -15 7 -5 -37 -42 -60 -49
-12 -4 -40 -16 -61 -27 -22 -11 -40 -18 -42 -16 -1 2 -5 19 -9 39 -6 36 -6 36
46 57 63 25 72 26 101 11z"/>
<path d="M224 397 c-2 -7 -3 -74 -2 -148 3 -126 4 -134 23 -134 19 0 20 8 23
118 l3 117 80 0 c64 0 81 -3 86 -16 12 -31 -11 -49 -66 -52 -35 -2 -54 -8 -58
-18 -7 -20 123 -154 150 -154 34 0 31 30 -7 69 -39 40 -44 51 -22 51 24 0 56
50 56 87 0 25 -8 43 -29 64 -29 28 -32 29 -131 29 -73 0 -102 -4 -106 -13z"/>
<path d="M650 378 c-11 -18 -20 -36 -20 -40 0 -4 -22 -43 -50 -88 -57 -95 -66
-118 -52 -132 21 -21 41 2 103 116 35 64 66 116 69 116 3 0 27 -45 55 -100 61
-123 77 -145 99 -137 27 11 19 35 -55 169 -65 119 -72 128 -100 128 -22 0 -34
-8 -49 -32z"/>
<path d="M914 397 c-2 -7 -3 -74 -2 -148 l3 -134 75 -3 c121 -4 179 39 188
140 3 44 0 59 -20 88 -34 51 -79 70 -166 70 -50 0 -74 -4 -78 -13z m183 -69
c30 -29 32 -94 2 -132 -18 -23 -28 -26 -80 -26 l-59 0 0 90 0 90 57 0 c44 0
62 -5 80 -22z"/>
<path d="M1256 389 c-21 -16 -26 -29 -26 -63 0 -62 32 -89 113 -96 58 -5 62
-7 62 -30 0 -24 -2 -25 -82 -28 -84 -3 -111 -16 -99 -47 4 -12 24 -15 94 -15
75 0 93 3 116 21 22 17 26 29 26 68 0 65 -21 83 -108 90 -63 6 -67 7 -67 31 0
24 2 25 77 28 79 3 106 16 94 47 -4 12 -24 15 -89 15 -70 0 -89 -3 -111 -21z"/>
<path d="M1517 404 c-4 -4 -7 -58 -7 -120 l0 -112 36 -31 c33 -30 40 -32 102
-29 64 3 67 4 67 28 0 24 -3 25 -67 28 -38 2 -71 8 -77 16 -6 6 -12 59 -13
116 -2 85 -6 105 -18 108 -9 1 -19 0 -23 -4z"/>
<path d="M1771 396 c-8 -9 -11 -57 -9 -147 3 -126 4 -134 23 -134 19 0 20 8
23 118 l3 117 78 0 c59 0 82 -4 92 -16 23 -28 -1 -48 -67 -54 -55 -5 -59 -7
-59 -30 0 -23 4 -25 58 -28 55 -3 60 -1 92 31 45 45 47 87 6 128 -29 28 -32
29 -129 29 -73 0 -103 -4 -111 -14z"/>
<path d="M2085 400 c-4 -6 -5 -72 -3 -146 3 -141 10 -162 43 -134 19 16 22
259 3 278 -15 15 -35 16 -43 2z"/>
<path d="M2174 395 c-12 -31 4 -45 50 -45 l45 0 3 -117 c3 -110 4 -118 23
-118 19 0 20 8 23 118 l3 117 34 0 c32 0 35 2 35 30 l0 30 -105 0 c-85 0 -107
-3 -111 -15z"/>
<path d="M677 233 c-14 -14 -6 -41 14 -46 22 -6 35 13 25 38 -6 15 -28 20 -39
8z"/>
</g>
</svg>
